HIERARCHY
ROOT Hips
{
	OFFSET 46.218102 -5.635053 82.279800
	CHANNELS 6 Xposition Yposition Zposition Xrotation Yrotation Zrotation
	JOINT spine
	{
		OFFSET 0.000000 -0.359108 6.244789
		CHANNELS 3 Xrotation Yrotation Zrotation
		JOINT spine1
		{
			OFFSET 0.000000 -0.000001 9.069412
			CHANNELS 3 Xrotation Yrotation Zrotation
			JOINT spine2
			{
				OFFSET 0.000000 -0.000001 8.690140
				CHANNELS 3 Xrotation Yrotation Zrotation
				JOINT Neck
				{
					OFFSET 0.000000 -1.063724 22.311195
					CHANNELS 3 Xrotation Yrotation Zrotation
					JOINT Head
					{
						OFFSET 0.000000 -0.000001 6.740814
						CHANNELS 3 Xrotation Yrotation Zrotation
						End Site
						{
							OFFSET 0.000000 5.380967 16.316498
						}
					}
				}
				JOINT RightShoulder
				{
					OFFSET -3.659161 0.509512 9.384682
					CHANNELS 3 Xrotation Yrotation Zrotation
					JOINT RightArm
					{
						OFFSET 0.000000 -0.000002 12.308899
						CHANNELS 3 Xrotation Yrotation Zrotation
						JOINT RightArmRoll
						{
							OFFSET 0.000000 -0.000001 6.213745
							CHANNELS 3 Xrotation Yrotation Zrotation
							JOINT RightForeArm
							{
								OFFSET 0.000000 -0.000003 18.098495
								CHANNELS 3 Xrotation Yrotation Zrotation
								JOINT RightForeArmRoll
								{
									OFFSET 0.000000 -0.000001 6.972794
									CHANNELS 3 Xrotation Yrotation Zrotation
									JOINT RightHand
									{
										OFFSET 0.000000 -0.000002 13.992905
										CHANNELS 3 Xrotation Yrotation Zrotation
										End Site
										{
											OFFSET 0.000000 0.000000 0.100006
										}
									}
								}
							}
						}
					}
				}
				JOINT LeftShoulder
				{
					OFFSET 3.659161 0.509512 9.384682
					CHANNELS 3 Xrotation Yrotation Zrotation
					JOINT LeftArm
					{
						OFFSET 0.000000 -0.000002 12.308899
						CHANNELS 3 Xrotation Yrotation Zrotation
						JOINT LeftArmRoll
						{
							OFFSET 0.000000 -0.000001 6.213745
							CHANNELS 3 Xrotation Yrotation Zrotation
							JOINT LeftForeArm
							{
								OFFSET 0.000000 -0.000003 18.098495
								CHANNELS 3 Xrotation Yrotation Zrotation
								JOINT LeftForeArmRoll
								{
									OFFSET 0.000000 -0.000001 6.972794
									CHANNELS 3 Xrotation Yrotation Zrotation
									JOINT LeftHand
									{
										OFFSET 0.000000 -0.000002 13.992905
										CHANNELS 3 Xrotation Yrotation Zrotation
										End Site
										{
											OFFSET 0.000000 0.000000 0.100006
										}
									}
								}
							}
						}
					}
				}
			}
		}
	}
	JOINT RightUpLeg
	{
		OFFSET -5.535149 0.851454 -1.014999
		CHANNELS 3 Xrotation Yrotation Zrotation
		JOINT RightUpLegRoll
		{
			OFFSET 0.000000 -0.000002 16.407501
			CHANNELS 3 Xrotation Yrotation Zrotation
			JOINT RightLeg
			{
				OFFSET 0.000000 0.000003 -20.318100
				CHANNELS 3 Xrotation Yrotation Zrotation
				JOINT RightLegRoll
				{
					OFFSET 0.000000 -0.000003 20.384598
					CHANNELS 3 Xrotation Yrotation Zrotation
					JOINT RightFoot
					{
						OFFSET 0.000000 -0.000003 16.966797
						CHANNELS 3 Xrotation Yrotation Zrotation
						JOINT RightToeBase
						{
							OFFSET 0.000000 -0.000002 14.183395
							CHANNELS 3 Xrotation Yrotation Zrotation
							End Site
							{
								OFFSET 0.006012 0.791745 6.868896
							}
						}
					}
				}
			}
		}
	}
	JOINT LeftUpLeg
	{
		OFFSET 5.535149 0.851454 -1.014999
		CHANNELS 3 Xrotation Yrotation Zrotation
		JOINT LeftUpLegRoll
		{
			OFFSET 0.000000 -0.000002 16.407600
			CHANNELS 3 Xrotation Yrotation Zrotation
			JOINT LeftLeg
			{
				OFFSET 0.000000 -0.000003 20.318100
				CHANNELS 3 Xrotation Yrotation Zrotation
				JOINT LeftLegRoll
				{
					OFFSET 0.000000 -0.000003 20.573097
					CHANNELS 3 Xrotation Yrotation Zrotation
					JOINT LeftFoot
					{
						OFFSET 0.000000 -0.000003 16.778305
						CHANNELS 3 Xrotation Yrotation Zrotation
						JOINT LeftToeBase
						{
							OFFSET 0.000000 -0.000002 14.183395
							CHANNELS 3 Xrotation Yrotation Zrotation
							End Site
							{
								OFFSET -0.026943 0.791745 6.868896
							}
						}
					}
				}
			}
		}
	}
}
MOTION
Frames: 13
Frame Time: 0.041667
69.039803 -16.271711 82.822395 -7.840021 23.308719 85.392015 -3.004962 1.411179 1.167121 -2.035701 2.764637 2.399480 -0.390404 2.793146 2.362545 -39.748607 7.795747 0.776135 26.301105 -19.952646 2.914851 -0.900321 -18.164804 5.570418 -85.347250 -195.632860 -77.770043 0.000002 0.000000 -0.000001 7.627778 -0.451244 -1.296978 0.000016 0.000006 -3.002359 -5.000163 -7.999142 0.000043 -66.701039 67.625730 75.501608 -72.415571 107.139652 60.278885 -0.000001 -0.000008 0.000002 32.821934 7.961794 -1.505946 0.000002 -0.000015 2.999996 -4.999999 7.998787 -0.000053 -8.412723 -189.005705 -3.360297 -179.999991 0.000005 -1.017993 156.263062 -1.959113 -1.521261 -0.000005 0.000003 0.336309 70.906229 6.770952 2.320457 25.419864 -7.355156 0.018491 -43.873017 173.430251 8.072389 -0.000007 -0.000004 -0.576825 -20.084291 -2.849134 0.476963 -0.000002 -0.000002 0.372020 63.799076 -6.306674 -3.783869 25.457319 7.351695 -0.000083 
69.099701 -16.268011 82.808388 -7.839808 23.335655 85.387132 -3.002003 1.411003 1.167720 -2.030634 2.763815 2.399986 -0.385342 2.792336 2.363383 -39.757247 7.823355 0.816601 26.299778 -19.945296 2.935127 -0.908650 -18.159168 5.559006 -85.152453 -195.751733 -77.758958 -0.000001 -0.000002 0.000001 7.567759 -0.484808 -1.292615 0.000016 0.000007 -3.002361 -5.000161 -7.999146 0.000043 -66.679107 67.652286 75.471002 -72.295845 107.163954 60.235418 -0.000001 -0.000007 -0.000002 32.924661 7.987833 -1.517952 0.000000 -0.000016 2.999993 -5.000001 7.998786 -0.000056 -8.426969 -188.972715 -3.362045 -179.999991 0.000005 -1.020002 156.233952 -1.925712 -1.518764 -0.000008 0.000004 0.338043 70.914726 6.770925 2.319435 25.412793 -7.355138 0.022177 -43.846526 173.435374 8.074440 -0.000005 -0.000004 -0.577107 -20.065832 -2.852880 0.475366 -0.000002 -0.000002 0.372444 63.819505 -6.321831 -3.749017 25.457324 7.351703 -0.000077 
69.147499 -16.257511 82.829384 -7.838650 23.362247 85.381114 -2.999119 1.411005 1.168269 -2.025760 2.763364 2.400365 -0.380461 2.791889 2.364123 -39.765614 7.850287 0.856315 26.302360 -19.939817 2.956496 -0.918534 -18.155821 5.544706 -84.955505 -195.872231 -77.740660 0.000002 0.000000 -0.000001 7.509712 -0.514276 -1.288730 0.000016 0.000006 -3.002361 -5.000164 -7.999144 0.000042 -66.660146 67.680160 75.443312 -72.190721 107.187012 60.206417 -0.000002 -0.000007 -0.000003 33.026680 8.014695 -1.530212 -0.000000 -0.000016 2.999989 -5.000000 7.998785 -0.000053 -8.441486 -188.938728 -3.365111 -179.999991 0.000005 -1.021000 156.201645 -1.890468 -1.515524 -0.000000 0.000004 0.339898 70.924070 6.770866 2.318457 25.410868 -7.355109 0.023263 -43.818628 173.440373 8.076864 -0.000006 -0.000004 -0.577341 -20.045567 -2.856386 0.473792 -0.000002 -0.000002 0.372945 63.839408 -6.336941 -3.714078 25.457324 7.351711 -0.000082 
69.193802 -16.250814 82.871101 -7.836615 23.388378 85.373984 -2.996288 1.411160 1.168786 -2.020991 2.763253 2.400641 -0.375700 2.791780 2.364770 -39.773622 7.876637 0.895441 26.307684 -19.935840 2.978587 -0.929605 -18.154667 5.528113 -84.756459 -195.993316 -77.718113 0.000000 0.000002 -0.000000 7.454038 -0.540312 -1.285241 0.000018 0.000006 -3.002360 -5.000164 -7.999144 0.000043 -66.644287 67.708799 75.418717 -72.099183 107.209122 60.190468 -0.000003 -0.000007 -0.000003 33.127579 8.042298 -1.542671 0.000002 -0.000015 2.999990 -5.000003 7.998787 -0.000055 -8.455963 -188.905752 -3.368953 -179.999991 0.000005 -1.022993 156.167549 -1.853377 -1.513487 0.000001 0.000003 0.341825 70.933844 6.770836 2.317256 25.412885 -7.355080 0.022243 -43.789063 173.445906 8.078772 -0.000007 -0.000004 -0.577535 -20.023692 -2.859575 0.472286 -0.000002 -0.000003 0.373499 63.858662 -6.351851 -3.679726 25.457326 7.351721 -0.000076 
69.244301 -16.245815 82.874489 -7.833747 23.413859 85.365835 -2.993506 1.411473 1.169274 -2.016295 2.763450 2.400842 -0.371010 2.791993 2.365343 -39.780835 7.902215 0.933785 26.315071 -19.933101 3.001265 -0.941514 -18.155410 5.509832 -84.556273 -196.113938 -77.690157 0.000000 -0.000000 0.000000 7.401146 -0.563568 -1.282119 0.000018 0.000006 -3.002361 -5.000166 -7.999142 0.000043 -66.630524 67.737930 75.396300 -72.020370 107.230862 60.186964 -0.000002 -0.000007 -0.000000 33.226845 8.070547 -1.555281 0.000003 -0.000015 2.999993 -5.000000 7.998785 -0.000056 -8.470050 -188.872762 -3.373457 -179.999991 0.000005 -1.025001 156.132879 -1.814461 -1.509628 -0.000004 0.000003 0.343773 70.943836 6.770805 2.316143 25.418037 -7.355047 0.019645 -43.758095 173.451329 8.080645 -0.000008 -0.000004 -0.577706 -20.000310 -2.862377 0.470889 -0.000002 -0.000003 0.374086 63.877220 -6.366341 -3.646114 25.457421 7.351724 -0.000093 
69.295799 -16.238813 82.856087 -7.830122 23.438585 85.356778 -2.990740 1.411895 1.169748 -2.011607 2.763949 2.400982 -0.366324 2.792495 2.365858 -39.786955 7.926978 0.971334 26.323525 -19.930934 3.024083 -0.953882 -18.157950 5.490444 -84.354817 -196.232892 -77.659708 0.000000 0.000000 -0.000000 7.351459 -0.584671 -1.279313 0.000016 0.000005 -3.002360 -5.000162 -7.999145 0.000043 -66.619097 67.767361 75.376287 -71.953686 107.252596 60.195017 -0.000001 -0.000007 -0.000002 33.323769 8.099381 -1.567982 -0.000001 -0.000015 2.999992 -5.000001 7.998784 -0.000054 -8.483398 -188.840783 -3.378203 -179.999991 0.000005 -1.025999 156.098987 -1.776499 -1.507104 -0.000006 0.000004 0.345691 70.953829 6.770769 2.315029 25.425297 -7.355007 0.015973 -43.725635 173.457312 8.081603 -0.000006 -0.000004 -0.577862 -19.975624 -2.864734 0.469639 -0.000002 -0.000002 0.374684 63.894876 -6.380416 -3.613551 25.457425 7.351732 -0.000097 
69.340897 -16.231611 82.876884 -7.825807 23.462449 85.346936 -2.987988 1.412427 1.170198 -2.006877 2.764715 2.401100 -0.361592 2.793265 2.366332 -39.791750 7.950721 1.007940 26.332135 -19.929013 3.046787 -0.966364 -18.162089 5.470538 -84.153354 -196.349565 -77.625592 0.000000 -0.000002 -0.000000 7.305374 -0.604288 -1.276768 0.000017 0.000006 -3.002361 -5.000162 -7.999144 0.000045 -66.609562 67.796799 75.358351 -71.898717 107.274862 60.214265 -0.000003 -0.000007 -0.000001 33.418022 8.128704 -1.580732 0.000002 -0.000015 2.999991 -5.000001 7.998784 -0.000053 -8.495610 -188.807848 -3.383213 -179.999991 0.000005 -1.028007 156.067377 -1.738575 -1.503450 -0.000003 0.000003 0.347529 70.963398 6.770766 2.313949 25.433686 -7.354965 0.011744 -43.691713 173.463869 8.081435 -0.000006 -0.000004 -0.578020 -19.949821 -2.866565 0.468575 -0.000002 -0.000002 0.375272 63.911549 -6.393767 -3.582675 25.457432 7.351742 -0.000092 
69.381203 -16.223108 82.908394 -7.820858 23.485353 85.336411 -2.985230 1.413061 1.170654 -2.002043 2.765734 2.401224 -0.356754 2.794288 2.366792 -39.795004 7.973401 1.043613 26.339977 -19.927029 3.069123 -0.978592 -18.167525 5.450707 -83.951850 -196.462646 -77.589706 -0.000001 -0.000000 0.000001 7.263314 -0.623068 -1.274452 0.000018 0.000007 -3.002360 -5.000163 -7.999141 0.000043 -66.601912 67.825807 75.342546 -71.854109 107.298010 60.243163 -0.000002 -0.000007 -0.000001 33.509113 8.158420 -1.593480 0.000003 -0.000014 2.999990 -5.000002 7.998787 -0.000055 -8.506406 -188.775951 -3.387948 -179.999991 0.000005 -1.029004 156.039360 -1.701641 -1.500058 -0.000000 0.000004 0.349237 70.972441 6.770721 2.312991 25.442072 -7.354930 0.007447 -43.656356 173.469579 8.081312 -0.000006 -0.000003 -0.578188 -19.923003 -2.867822 0.467738 -0.000002 -0.000002 0.375829 63.927306 -6.406246 -3.553646 25.457428 7.351742 -0.000092 
69.431198 -16.214514 82.916893 -7.815360 23.507192 85.325332 -2.982436 1.413754 1.171109 -1.997040 2.766971 2.401375 -0.351751 2.795538 2.367246 -39.796302 7.994970 1.078287 26.346316 -19.924458 3.090806 -0.990197 -18.174163 5.431548 -83.750817 -196.571205 -77.552932 -0.000001 0.000001 -0.000001 7.225678 -0.641645 -1.272287 0.000016 0.000006 -3.002362 -5.000164 -7.999146 0.000041 -66.595608 67.854166 75.328333 -71.819733 107.322564 60.281754 -0.000003 -0.000007 0.000001 33.596396 8.188453 -1.606143 0.000002 -0.000015 2.999989 -5.000002 7.998785 -0.000055 -8.515409 -188.745079 -3.392109 -179.999991 0.000005 -1.030998 156.016206 -1.666607 -1.497312 0.000001 0.000004 0.350765 70.980521 6.770708 2.312096 25.449640 -7.354899 0.003639 -43.619531 173.475863 8.079658 -0.000005 -0.000004 -0.578382 -19.895173 -2.868429 0.467162 -0.000002 -0.000003 0.376334 63.941827 -6.417793 -3.526871 25.457430 7.351751 -0.000086 
69.476700 -16.207315 82.932297 -7.809381 23.527761 85.313789 -2.979619 1.414497 1.171569 -1.991815 2.768420 2.401583 -0.346530 2.796987 2.367721 -39.795315 8.015251 1.111825 26.349994 -19.920926 3.111465 -1.000822 -18.181911 5.413657 -83.550610 -196.673958 -77.517080 0.000000 -0.000002 0.000000 7.192898 -0.660656 -1.270265 0.000018 0.000007 -3.002362 -5.000166 -7.999144 0.000043 -66.590192 67.881582 75.315424 -71.794502 107.349059 60.328725 -0.000002 -0.000007 -0.000000 33.679475 8.218725 -1.618702 0.000001 -0.000015 2.999987 -5.000001 7.998787 -0.000054 -8.522246 -188.713250 -3.395760 -179.999991 0.000005 -1.031996 155.999417 -1.634413 -1.493570 -0.000004 0.000004 0.352063 70.987536 6.770657 2.311362 25.455295 -7.354864 0.000776 -43.581398 173.482024 8.076979 -0.000007 -0.000004 -0.578613 -19.866633 -2.868315 0.466898 -0.000002 -0.000002 0.376765 63.955275 -6.428184 -3.502587 25.457432 7.351761 -0.000090 
69.528503 -16.200716 82.951286 -7.802952 23.547065 85.301795 -2.976749 1.415279 1.172049 -1.986322 2.770047 2.401873 -0.341030 2.798621 2.368213 -39.791941 8.034097 1.144154 26.350276 -19.915901 3.130819 -1.010103 -18.190361 5.397616 -83.352084 -196.770141 -77.479979 -0.000001 0.000000 -0.000000 7.165361 -0.680807 -1.268340 0.000015 0.000007 -3.002362 -5.000164 -7.999142 0.000044 -66.586135 67.907687 75.304222 -71.778123 107.377827 60.383742 -0.000003 -0.000007 -0.000001 33.757722 8.249152 -1.631052 0.000003 -0.000015 2.999991 -5.000002 7.998786 -0.000053 -8.526619 -188.683470 -3.398153 -179.999991 0.000005 -1.033006 155.990387 -1.605069 -1.490816 -0.000003 0.000003 0.353079 70.993055 6.770635 2.310822 25.458022 -7.354836 -0.000600 -43.541882 173.488034 8.073071 -0.000006 -0.000004 -0.578892 -19.837572 -2.867419 0.466964 -0.000002 -0.000002 0.377100 63.967269 -6.437233 -3.481475 25.457426 7.351771 -0.000095 
69.573700 -16.193110 82.954391 -7.796185 23.564895 85.289583 -2.973799 1.416081 1.172557 -1.980480 2.771826 2.402261 -0.335193 2.800414 2.368757 -39.785749 8.051477 1.175251 26.346263 -19.909166 3.148653 -1.017685 -18.199517 5.384027 -83.155299 -196.858524 -77.445486 0.000001 -0.000003 0.000001 7.143495 -0.702677 -1.266455 0.000018 0.000006 -3.002360 -5.000165 -7.999147 0.000043 -66.582282 67.932290 75.293799 -71.769326 107.409301 60.445480 -0.000002 -0.000008 0.000002 33.830730 8.279653 -1.643163 0.000005 -0.000016 2.999989 -4.999998 7.998784 -0.000053 -8.528127 -188.652762 -3.399490 -179.999991 0.000005 -1.033007 155.990292 -1.580394 -1.487839 -0.000004 0.000004 0.353764 70.996859 6.770577 2.310680 25.456812 -7.354809 -0.000002 -43.501045 173.493949 8.067710 -0.000007 -0.000004 -0.579234 -19.808001 -2.865673 0.467413 -0.000002 -0.000002 0.377319 63.978013 -6.444851 -3.463605 25.457428 7.351777 -0.000089 
69.620697 -16.181910 82.971901 -7.788801 23.581465 85.276749 -2.970830 1.416943 1.173048 -1.974372 2.773894 2.402627 -0.329084 2.802483 2.369231 -39.777587 8.066755 1.205172 26.339337 -19.900588 3.165611 -1.023527 -18.210889 5.372556 -82.960168 -196.940664 -77.409669 0.000002 -0.000000 -0.000002 7.128169 -0.725286 -1.264714 0.000018 0.000006 -3.002363 -5.000165 -7.999144 0.000042 -66.580465 67.955478 75.285774 -71.772652 107.443343 60.519041 -0.000004 -0.000007 -0.000001 33.899363 8.310711 -1.655150 0.000003 -0.000015 2.999990 -5.000002 7.998784 -0.000052 -8.527356 -188.623092 -3.400206 -179.999991 0.000005 -1.034004 155.997955 -1.558558 -1.484862 -0.000002 0.000004 0.354165 70.999407 6.770514 2.310715 25.453878 -7.354770 0.001569 -43.458195 173.498922 8.061017 -0.000007 -0.000004 -0.579617 -19.776200 -2.862508 0.468313 -0.000002 -0.000002 0.377499 63.986175 -6.450698 -3.449774 25.457428 7.351788 -0.000093 
